<?xml version="1.0" encoding="UTF-8" standalone="no"?>
<svg
   viewBox="0 0 1200 300"
   version="1.1"
   id="svg2"
   sodipodi:docname="otown_logo_1.svg"
   inkscape:version="1.4.3 (fcd0343856, 2026-01-01)"
   width="1200"
   height="300"
   xmlns:inkscape="http://www.inkscape.org/namespaces/inkscape"
   xmlns:sodipodi="http://sodipodi.sourceforge.net/DTD/sodipodi-0.dtd"
   xmlns="http://www.w3.org/2000/svg"
   xmlns:svg="http://www.w3.org/2000/svg">
  <sodipodi:namedview
     id="namedview2"
     pagecolor="#ffffff"
     bordercolor="#000000"
     borderopacity="0.25"
     inkscape:showpageshadow="2"
     inkscape:pageopacity="0.0"
     inkscape:pagecheckerboard="0"
     inkscape:deskcolor="#d1d1d1"
     inkscape:zoom="0.68001353"
     inkscape:cx="349.99304"
     inkscape:cy="-67.645713"
     inkscape:window-width="2560"
     inkscape:window-height="1374"
     inkscape:window-x="2560"
     inkscape:window-y="29"
     inkscape:window-maximized="1"
     inkscape:current-layer="svg2" />
  <defs
     id="defs1">
    <style
       id="style1">
      .blue { fill: #3B4BA0; }
      .orange { fill: #FF5722; }
    </style>
  </defs>
  <!-- O'TOWN in blue -->
  <!-- MAKERSPACE in orange -->
  <g
     id="g2"
     transform="translate(17.999995,12.025316)">
    <path
       d="m 212.6478,35.841833 q -17.5633,0 -27.24308,12.972896 -9.67977,12.972895 -9.67977,36.52369 0,23.451001 9.67977,36.423901 9.67978,12.97289 27.24308,12.97289 17.6631,0 27.34287,-12.97289 9.67978,-12.9729 9.67978,-36.423901 0,-23.550795 -9.67978,-36.52369 Q 230.3109,35.841833 212.6478,35.841833 Z m 0,-27.8418295 q 35.92494,0 56.28241,20.5570495 20.35747,20.55705 20.35747,56.781366 0,36.124521 -20.35747,56.681571 -20.35747,20.55705 -56.28241,20.55705 -35.82515,0 -56.28241,-20.55705 -20.35746,-20.55705 -20.35746,-56.681571 0,-36.224316 20.35746,-56.781366 Q 176.82265,8.0000035 212.6478,8.0000035 Z M 337.67614,10.694374 V 66.078659 H 314.02555 V 10.694374 Z m 15.45726,0 h 137.31311 v 29.039328 h -49.3968 V 159.68309 H 402.62998 V 39.733702 H 353.1334 Z m 220.22943,25.147459 q -17.56331,0 -27.24308,12.972896 -9.67978,12.972895 -9.67978,36.52369 0,23.451001 9.67978,36.423901 9.67977,12.97289 27.24308,12.97289 17.6631,0 27.34287,-12.97289 9.67978,-12.9729 9.67978,-36.423901 0,-23.550795 -9.67978,-36.52369 -9.67977,-12.972896 -27.34287,-12.972896 z m 0,-27.8418295 q 35.92494,0 56.28241,20.5570495 20.35746,20.55705 20.35746,56.781366 0,36.124521 -20.35746,56.681571 -20.35747,20.55705 -56.28241,20.55705 -35.82515,0 -56.28241,-20.55705 -20.35747,-20.55705 -20.35747,-56.681571 0,-36.224316 20.35747,-56.781366 20.45726,-20.5570495 56.28241,-20.5570495 z m 88.00567,2.6943705 h 36.82307 L 723.93777,118.96816 749.4844,10.694374 h 37.02265 L 812.05367,118.96816 837.79988,10.694374 h 36.52369 L 839.19696,159.68309 H 794.88953 L 767.84604,46.419733 741.10191,159.68309 h -44.30742 z m 233.10254,0 h 42.91035 L 991.56817,112.88087 V 10.694374 h 36.42393 V 159.68309 H 985.08172 L 930.89494,57.49659 v 102.1865 h -36.4239 z"
       id="text1"
       style="font-weight:900;font-size:204.373px;font-family:'Arial Black', sans-serif;letter-spacing:-5;fill:#3b4ba0;stroke-width:1.13542"
       class="blue"
       aria-label="O'TOWN" />
    <path
       d="m 135.20549,176.20576 h 29.53638 l 20.49463,48.16238 20.61518,-48.16238 h 29.4761 v 89.99553 h -21.94131 v -65.82392 l -20.73574,48.52405 h -14.70791 l -20.73574,-48.52405 v 65.82392 h -22.00159 z m 175.45937,73.59983 h -36.28754 l -5.72644,16.3957 h -23.32771 l 33.33391,-89.99553 h 27.66774 l 33.33391,89.99553 h -23.3277 z M 280.16403,233.1085 h 24.65384 l -12.29678,-35.80532 z m 69.42981,-56.90274 H 372.801 v 32.85169 l 33.45446,-32.85169 h 26.94441 l -43.34011,42.61678 47.80071,47.37875 H 408.60632 L 372.801,230.75764 v 35.44365 h -23.20716 z m 93.6617,0 h 62.62917 v 17.54099 h -39.42202 v 16.75738 h 37.07117 v 17.54099 h -37.07117 v 20.61518 h 40.74815 v 17.54099 h -63.9553 z m 115.30159,39.90425 q 7.29367,0 10.42815,-2.71252 3.19475,-2.71253 3.19475,-8.92119 0,-6.14839 -3.19475,-8.80064 -3.13448,-2.65225 -10.42815,-2.65225 h -9.76509 v 23.0866 z m -9.76509,16.03403 v 34.05725 h -23.20715 v -89.99553 h 35.44365 q 17.7821,0 26.04023,5.96756 8.31841,5.96755 8.31841,18.86711 0,8.92119 -4.34004,14.64763 -4.27976,5.72644 -12.95984,8.43897 4.76199,1.08501 8.49925,4.94282 3.79753,3.79753 7.65534,11.57344 l 12.59817,25.558 H 582.12595 L 571.1553,243.83804 q -3.31531,-6.75117 -6.75118,-9.22259 -3.37558,-2.47141 -9.04174,-2.47141 z m 132.48095,-53.1052 v 19.04795 q -7.41423,-3.3153 -14.4668,-5.0031 -7.05256,-1.68779 -13.3215,-1.68779 -8.31841,0 -12.29678,2.29058 -3.97837,2.29057 -3.97837,7.11284 0,3.6167 2.65225,5.66616 2.71252,1.98918 9.76508,3.43586 l 9.88565,1.98919 q 15.0093,3.01391 21.33852,9.1623 6.32923,6.14839 6.32923,17.48072 0,14.88874 -8.86092,22.18242 -8.80063,7.2334 -26.94441,7.2334 -8.55952,0 -17.17932,-1.62752 -8.6198,-1.62751 -17.2396,-4.82226 v -19.59046 q 8.6198,4.58115 16.63682,6.93201 8.07729,2.29057 15.55181,2.29057 7.59506,0 11.63371,-2.53169 4.03865,-2.53168 4.03865,-7.23339 0,-4.21949 -2.7728,-6.51006 -2.71253,-2.29058 -10.91038,-4.09893 l -8.98147,-1.98918 q -13.50234,-2.89336 -19.77129,-9.22258 -6.20866,-6.32923 -6.20866,-17.05877 0,-13.44206 8.68007,-20.67546 8.68008,-7.2334 24.95523,-7.2334 7.41423,0 15.25041,1.14529 7.83618,1.08501 16.21487,3.3153 z m 24.28132,-2.83308 h 38.51784 q 17.17933,0 26.34163,7.65535 9.22258,7.59507 9.22258,21.7002 0,14.1654 -9.22258,21.82075 -9.1623,7.59506 -26.34163,7.59506 h -15.31069 v 31.22417 h -23.20715 z m 23.20715,16.81765 v 25.13606 h 12.83928 q 6.75118,0 10.42815,-3.25503 3.67698,-3.3153 3.67698,-9.34313 0,-6.02784 -3.67698,-9.28287 -3.67697,-3.25503 -10.42815,-3.25503 z m 108.55045,56.78218 h -36.28755 l -5.72644,16.3957 h -23.32771 l 33.33392,-89.99553 h 27.66774 l 33.33391,89.99553 H 842.97807 Z M 806.81108,233.1085 h 24.65384 l -12.29678,-35.80532 z m 140.79934,28.14997 q -6.3895,3.31531 -13.32151,5.0031 -6.932,1.6878 -14.46679,1.6878 -22.48382,0 -35.62449,-12.5379 -13.14067,-12.59816 -13.14067,-34.11752 0,-21.57964 13.14067,-34.11753 13.14067,-12.59817 35.62449,-12.59817 7.53479,0 14.46679,1.68779 6.93201,1.6878 13.32151,5.0031 v 18.626 q -6.44978,-4.40031 -12.71872,-6.44978 -6.26895,-2.04946 -13.20095,-2.04946 -12.41734,0 -19.53018,7.95674 -7.11284,7.95674 -7.11284,21.94131 0,13.92429 7.11284,21.88103 7.11284,7.95673 19.53018,7.95673 6.932,0 13.20095,-2.04946 6.26894,-2.04946 12.71872,-6.44978 z m 17.2288,-85.05271 h 62.62918 v 17.54099 h -39.42203 v 16.75738 h 37.07113 v 17.54099 h -37.07113 v 20.61518 h 40.74813 v 17.54099 h -63.95528 z"
       id="text2"
       style="font-weight:900;font-size:123.45px;font-family:'Arial Black', sans-serif;letter-spacing:-2;fill:#ff5722;stroke-width:0.881792"
       class="orange"
       aria-label="MAKERSPACE" />
  </g>
</svg>
