<?xml version="1.0" encoding="UTF-8" standalone="no"?>
<svg
   viewBox="0 0 1200 300"
   version="1.1"
   id="svg2"
   sodipodi:docname="otown_logo_2.svg"
   width="1200"
   height="300"
   inkscape:version="1.4.3 (fcd0343856, 2026-01-01)"
   xmlns:inkscape="http://www.inkscape.org/namespaces/inkscape"
   xmlns:sodipodi="http://sodipodi.sourceforge.net/DTD/sodipodi-0.dtd"
   xmlns="http://www.w3.org/2000/svg"
   xmlns:svg="http://www.w3.org/2000/svg">
  <sodipodi:namedview
     id="namedview2"
     pagecolor="#ffffff"
     bordercolor="#000000"
     borderopacity="0.25"
     inkscape:showpageshadow="2"
     inkscape:pageopacity="0.0"
     inkscape:pagecheckerboard="0"
     inkscape:deskcolor="#d1d1d1"
     inkscape:zoom="1.0514948"
     inkscape:cx="751.31137"
     inkscape:cy="520.2118"
     inkscape:window-width="2560"
     inkscape:window-height="1374"
     inkscape:window-x="2560"
     inkscape:window-y="29"
     inkscape:window-maximized="1"
     inkscape:current-layer="svg2" />
  <defs
     id="defs1">
    <style
       id="style1">
      .blue { fill: #3B4BA0; }
      .orange { fill: #FF5722; }
    </style>
  </defs>
  <!-- O ' TOWN in blue with extra spacing -->
  <!-- MAKERSPACE in orange -->
  <g
     id="g2"
     transform="translate(-8.8728123,-12.988289)">
    <path
       d="m 167.05868,54.099225 q -17.45425,0 -27.07392,12.892344 -9.61967,12.892344 -9.61967,36.296911 0,23.30539 9.61967,36.19773 9.61967,12.89234 27.07392,12.89234 17.55343,0 27.1731,-12.89234 9.61967,-12.89234 9.61967,-36.19773 0,-23.404567 -9.61967,-36.296911 -9.61967,-12.892344 -27.1731,-12.892344 z m 0,-27.668954 q 35.70188,0 55.93294,20.429407 20.23107,20.429406 20.23107,56.428802 0,35.90022 -20.23107,56.32962 -20.23106,20.42941 -55.93294,20.42941 -35.6027,0 -55.93293,-20.42941 -20.231067,-20.4294 -20.231067,-56.32962 0,-35.999396 20.231067,-56.428802 20.33023,-20.429407 55.93293,-20.429407 z m 149.22096,2.677641 V 84.148304 H 292.7759 V 29.107912 Z m 40.33022,0 h 136.4605 V 57.966928 H 443.98028 V 177.17152 H 405.79911 V 57.966928 H 356.60986 Z M 600.4408,54.099225 q -17.45425,0 -27.07393,12.892344 -9.61967,12.892344 -9.61967,36.296911 0,23.30539 9.61967,36.19773 9.61968,12.89234 27.07393,12.89234 17.55342,0 27.17309,-12.89234 9.61967,-12.89234 9.61967,-36.19773 0,-23.404567 -9.61967,-36.296911 -9.61967,-12.892344 -27.17309,-12.892344 z m 0,-27.668954 q 35.70187,0 55.93293,20.429407 20.23107,20.429406 20.23107,56.428802 0,35.90022 -20.23107,56.32962 -20.23106,20.42941 -55.93293,20.42941 -35.60271,0 -55.93294,-20.42941 -20.23107,-20.4294 -20.23107,-56.32962 0,-35.999396 20.23107,-56.428802 20.33023,-20.429407 55.93294,-20.429407 z m 112.42818,2.677641 h 36.59442 l 25.58635,107.601488 25.388,-107.601488 h 36.79276 l 25.388,107.601488 25.58635,-107.601488 h 36.29691 L 889.59327,177.17152 H 845.56095 L 818.68537,64.611444 792.10731,177.17152 H 748.075 Z m 256.62406,0 h 42.64396 l 53.8503,101.551998 V 29.107912 h 36.1977 V 177.17152 h -42.6439 L 1005.6908,75.619522 V 177.17152 h -36.19776 z"
       id="text1"
       style="font-weight:900;font-size:203.104px;font-family:'Arial Black', sans-serif;letter-spacing:20;fill:#3b4ba0;stroke-width:1.19472"
       class="blue"
       transform="scale(1.0174655,0.98283435)"
       aria-label="O'TOWN" />
    <path
       d="m 109.46459,195.95703 h 33.4961 l 23.24218,54.61914 23.37891,-54.61914 h 33.42773 V 298.01758 H 198.1267 v -74.64844 l -23.51562,55.0293 h -16.67969 l -23.51563,-55.0293 v 74.64844 h -24.95117 z m 199.25,83.4668 h -41.15234 l -6.49414,18.59375 h -26.45508 l 37.80273,-102.06055 h 31.37696 l 37.80273,102.06055 h -26.45508 z m -34.58984,-18.93555 h 27.95898 l -13.94531,-40.60547 z m 79.00586,-64.53125 h 26.31836 v 37.25586 l 37.93945,-37.25586 h 30.55664 l -49.15039,48.33008 54.20898,53.73047 h -32.94921 l -40.60547,-40.19531 v 40.19531 h -26.31836 z m 106.48633,0 h 71.02539 v 19.89258 H 485.9353 v 19.00391 h 42.04101 v 19.89257 H 485.9353 V 278.125 h 46.21093 v 19.89258 h -72.52929 z m 131.02734,45.25391 q 8.27148,0 11.82617,-3.07617 3.62305,-3.07618 3.62305,-10.11719 0,-6.97266 -3.62305,-9.98047 -3.55469,-3.00781 -11.82617,-3.00781 h -11.07422 v 26.18164 z m -11.07422,18.18359 v 38.62305 H 553.2517 V 195.95703 h 40.19531 q 20.16602,0 29.53125,6.76758 9.4336,6.76758 9.4336,21.39648 0,10.11719 -4.92188,16.61133 -4.85351,6.49414 -14.69726,9.57031 5.40039,1.23047 9.63867,5.60547 4.30664,4.30664 8.68164,13.125 l 14.28711,28.98438 H 617.3728 L 604.93139,272.65625 Q 601.17162,265 597.27514,262.19727 q -3.82813,-2.80274 -10.25391,-2.80274 z m 150.50977,-60.22461 v 21.60156 q -8.40821,-3.75976 -16.40625,-5.67382 -7.99805,-1.91407 -15.10743,-1.91407 -9.43359,0 -13.94531,2.59766 -4.51172,2.59766 -4.51172,8.06641 0,4.10156 3.00782,6.42578 3.07617,2.25586 11.07421,3.89648 l 11.21094,2.25586 q 17.02149,3.41797 24.19922,10.39063 7.17774,6.97265 7.17774,19.82421 0,16.88477 -10.04883,25.15625 Q 716.74975,300 696.17358,300 q -9.70703,0 -19.48243,-1.8457 -9.77539,-1.84571 -19.55078,-5.46875 v -22.2168 q 9.77539,5.19531 18.86719,7.86133 9.16016,2.59765 17.63672,2.59765 8.61328,0 13.19336,-2.87109 4.58008,-2.87109 4.58008,-8.20312 0,-4.78516 -3.14453,-7.38282 -3.07618,-2.59765 -12.37305,-4.64843 l -10.18555,-2.25586 q -15.3125,-3.28125 -22.42187,-10.45899 -7.04102,-7.17773 -7.04102,-19.3457 0,-15.24414 9.84375,-23.44727 9.84375,-8.20312 28.30078,-8.20312 8.40821,0 17.29492,1.29883 8.88672,1.23046 18.38868,3.75976 z m 27.80468,-3.21289 h 43.68164 q 19.48243,0 29.87305,8.68164 10.45899,8.61328 10.45899,24.60938 0,16.06445 -10.45899,24.74609 -10.39062,8.61328 -29.87305,8.61328 h -17.36328 v 35.41016 h -26.31836 z m 26.31836,19.07227 v 28.50586 h 14.56055 q 7.65625,0 11.82617,-3.69141 4.16992,-3.75977 4.16992,-10.5957 0,-6.83594 -4.16992,-10.52735 -4.16992,-3.6914 -11.82617,-3.6914 z m 123.3711,64.39453 h -41.15235 l -6.49414,18.59375 H 833.4724 l 37.80274,-102.06055 h 31.37695 l 37.80274,102.06055 h -26.45508 z m -34.58985,-18.93555 h 27.95899 L 886.9978,219.88281 Z m 159.94338,31.92383 q -7.2461,3.75976 -15.1074,5.67383 Q 1009.9587,300 1001.4138,300 q -25.49804,0 -40.40038,-14.21875 -14.90234,-14.28711 -14.90234,-38.69141 0,-24.47265 14.90234,-38.6914 14.90234,-14.28711 40.40038,-14.28711 8.5449,0 16.4063,1.91406 7.8613,1.91406 15.1074,5.67383 v 21.12305 q -7.3145,-4.99024 -14.4238,-7.31446 -7.1094,-2.32422 -14.9707,-2.32422 -14.08208,0 -22.14849,9.02344 -8.0664,9.02344 -8.0664,24.88281 0,15.79102 8.0664,24.81446 8.06641,9.02343 22.14849,9.02343 7.8613,0 14.9707,-2.32421 7.1093,-2.32422 14.4238,-7.31446 z m 19.8066,-96.45508 h 71.0254 v 19.89258 h -44.707 v 19.00391 h 42.041 v 19.89257 h -42.041 V 278.125 h 46.2109 v 19.89258 h -72.5293 z"
       id="text2"
       class="orange"
       style="font-weight:900;font-size:140px;font-family:'Arial Black', sans-serif;letter-spacing:-2;fill:#ff5722"
       aria-label="MAKERSPACE" />
  </g>
</svg>
