<svg xmlns="http://www.w3.org/2000/svg" viewBox="0 0 800 800">
  <defs>
    <style>
      .blue { fill: #3B4BA0; }
      .orange { fill: #FF5722; }
      .dark-blue { fill: #2D3A7F; }
      .dark-orange { fill: #E64A19; }
    </style>
  </defs>
  
  <!-- Isometric Cube with M -->
  <g transform="translate(400, 400)">
    <!-- Top face (orange with blue square) -->
    <path d="M 0,-180 L 156,-90 L 0,0 L -156,-90 Z" class="orange"/>
    <rect x="-40" y="-130" width="80" height="80" class="blue"/>
    
    <!-- Left face (blue with orange M leg) -->
    <path d="M -156,-90 L -156,180 L 0,270 L 0,0 Z" class="blue"/>
    <path d="M -120,20 L -90,35 L -90,200 L -120,185 Z" class="orange"/>
    
    <!-- Right face (orange with blue M) -->
    <path d="M 0,0 L 0,270 L 156,180 L 156,-90 Z" class="orange"/>
    
    <!-- M on right face -->
    <g>
      <path d="M 20,60 L 50,75 L 50,200 L 20,185 Z" class="blue"/>
      <path d="M 60,80 L 75,88 L 95,160 L 80,152 Z" class="blue"/>
      <path d="M 105,165 L 120,173 L 120,220 L 105,212 Z" class="blue"/>
    </g>
    
    <!-- Shading -->
    <path d="M -156,-90 L -156,180 L 0,270 L 0,0 Z" class="dark-blue" opacity="0.15"/>
    <path d="M 0,0 L 0,270 L 156,180 L 156,-90 Z" class="dark-orange" opacity="0.1"/>
  </g>
</svg>
