<?xml version="1.0" encoding="UTF-8" standalone="no"?>
<svg
   viewBox="0 0 1200 1200"
   version="1.1"
   id="svg3"
   sodipodi:docname="otown_logo_3.svg"
   width="1200"
   height="1200"
   inkscape:version="1.4.3 (fcd0343856, 2026-01-01)"
   xmlns:inkscape="http://www.inkscape.org/namespaces/inkscape"
   xmlns:sodipodi="http://sodipodi.sourceforge.net/DTD/sodipodi-0.dtd"
   xmlns="http://www.w3.org/2000/svg"
   xmlns:svg="http://www.w3.org/2000/svg">
  <sodipodi:namedview
     id="namedview3"
     pagecolor="#ffffff"
     bordercolor="#000000"
     borderopacity="0.25"
     inkscape:showpageshadow="2"
     inkscape:pageopacity="0.0"
     inkscape:pagecheckerboard="0"
     inkscape:deskcolor="#d1d1d1"
     inkscape:zoom="0.46440782"
     inkscape:cx="943.13658"
     inkscape:cy="971.12922"
     inkscape:window-width="2560"
     inkscape:window-height="1374"
     inkscape:window-x="2560"
     inkscape:window-y="29"
     inkscape:window-maximized="1"
     inkscape:current-layer="svg3" />
  <defs
     id="defs1">
    <style
       id="style1">
      .blue { fill: #3B4BA0; }
      .orange { fill: #FF5722; }
    </style>
  </defs>
  <!-- OTOWN in blue -->
  <!-- MAKER in orange -->
  <!-- SPACE in orange -->
  <path
     d="m 249.12862,295.21983 v -42.96291 q 0,-20.06288 -3.85045,-37.89654 -3.64779,-17.83366 -10.74073,-32.83015 -6.48497,-13.1726 -15.60445,-24.11598 -8.91683,-10.94339 -20.8735,-18.64429 -11.95666,-8.10621 -26.95315,-12.36197 -14.79383,-4.45841 -31.81687,-4.45841 -16.82039,0 -31.20892,4.25576 -14.38852,4.25576 -25.93987,12.15931 -11.754006,8.10621 -20.873493,19.45491 -8.916832,11.34869 -15.199145,25.33191 -6.484969,14.79383 -9.930109,32.22219 -3.242484,17.42835 -3.242484,36.88326 v 42.96291 q 0,18.23898 2.837174,34.65405 3.039829,16.41508 8.714176,30.39829 6.282314,15.19915 15.604456,27.35847 9.322143,11.95666 21.076148,20.46818 11.956661,8.10621 26.547837,12.56463 14.59118,4.45841 31.81688,4.45841 16.21242,0 30.19564,-4.0531 14.18587,-3.85045 25.93987,-10.94339 12.96994,-8.10621 23.1027,-20.26553 10.13277,-12.15931 17.02304,-26.75049 6.48497,-14.59118 9.93011,-31.61422 3.44514,-17.2257 3.44514,-36.2753 z m -57.75675,-43.36822 v 43.36822 q 0,10.94339 -1.21593,21.07615 -1.01328,10.13276 -3.24249,18.64429 -2.83717,10.94338 -7.7009,19.65756 -4.66107,8.51152 -11.55135,14.18587 -5.47169,4.66107 -12.56462,7.09293 -7.09294,2.43186 -15.60446,2.43186 -8.91683,0 -16.00977,-2.63451 -6.89027,-2.63452 -12.36197,-7.49825 -5.877,-5.47169 -10.33542,-14.18587 -4.255756,-8.91683 -6.484964,-19.65756 -2.026553,-8.51152 -2.837174,-18.44163 -0.810621,-9.93011 -0.810621,-20.67084 v -43.36822 q 0,-11.3487 0.810621,-21.68412 1.013277,-10.33542 3.039829,-19.04959 2.634519,-11.3487 7.295589,-19.86022 4.86373,-8.51152 11.75401,-14.18587 5.06638,-3.85045 11.34869,-5.877 6.48497,-2.02656 14.38853,-2.02656 8.30886,0 14.99649,2.22921 6.89028,2.22921 12.36197,6.28232 6.89028,5.47169 11.95666,14.18586 5.06638,8.51153 8.10621,19.45491 2.43186,8.71418 3.44514,19.0496 1.21593,10.13276 1.21593,21.48146 z M 506.13533,172.41074 V 126.00268 H 268.21804 v 46.40806 h 89.77629 v 248.65802 h 57.14878 V 172.41074 Z m 235.11994,122.80909 v -42.96291 q 0,-20.06288 -3.85045,-37.89654 -3.64779,-17.83366 -10.74073,-32.83015 -6.48497,-13.1726 -15.60445,-24.11598 -8.91684,-10.94339 -20.8735,-18.64429 -11.95666,-8.10621 -26.95315,-12.36197 -14.79383,-4.45841 -31.81688,-4.45841 -16.82038,0 -31.20891,4.25576 -14.38852,4.25576 -25.93987,12.15931 -11.75401,8.10621 -20.8735,19.45491 -8.91683,11.34869 -15.19914,25.33191 -6.48497,14.79383 -9.93011,32.22219 -3.24248,17.42835 -3.24248,36.88326 v 42.96291 q 0,18.23898 2.83717,34.65405 3.03983,16.41508 8.71418,30.39829 6.28231,15.19915 15.60445,27.35847 9.32215,11.95666 21.07615,20.46818 11.95666,8.10621 26.54784,12.56463 14.59118,4.45841 31.81688,4.45841 16.21242,0 30.19563,-4.0531 14.18587,-3.85045 25.93988,-10.94339 12.96994,-8.10621 23.1027,-20.26553 10.13276,-12.15931 17.02304,-26.75049 6.48497,-14.59118 9.93011,-31.61422 3.44514,-17.2257 3.44514,-36.2753 z m -57.75675,-43.36822 v 43.36822 q 0,10.94339 -1.21593,21.07615 -1.01328,10.13276 -3.24249,18.64429 -2.83717,10.94338 -7.7009,19.65756 -4.66107,8.51152 -11.55135,14.18587 -5.47169,4.66107 -12.56462,7.09293 -7.09294,2.43186 -15.60446,2.43186 -8.91683,0 -16.00977,-2.63451 -6.89028,-2.63452 -12.36197,-7.49825 -5.877,-5.47169 -10.33542,-14.18587 -4.25576,-8.91683 -6.48497,-19.65756 -2.02655,-8.51152 -2.83717,-18.44163 -0.81062,-9.93011 -0.81062,-20.67084 v -43.36822 q 0,-11.3487 0.81062,-21.68412 1.01328,-10.33542 3.03983,-19.04959 2.63452,-11.3487 7.29559,-19.86022 4.86373,-8.51152 11.754,-14.18587 5.06639,-3.85045 11.3487,-5.877 6.48497,-2.02656 14.38852,-2.02656 8.30887,0 14.99649,2.22921 6.89028,2.22921 12.36198,6.28232 6.89027,5.47169 11.95666,14.18586 5.06638,8.51153 8.10621,19.45491 2.43186,8.71418 3.44514,19.0496 1.21593,10.13276 1.21593,21.48146 z m 117.17454,169.21715 h 51.47444 l 24.72394,-159.28705 2.22921,-14.99649 2.22921,14.99649 25.73722,159.28705 h 51.47444 l 40.93636,-295.06608 h -52.28506 l -20.06287,165.3667 -1.41859,12.36197 -1.8239,-12.15931 -24.72394,-165.56936 h -40.73371 l -23.30535,164.35343 -1.8239,12.15931 -1.41859,-11.55135 -19.65756,-164.96139 h -52.0824 z m 421.36014,0 V 126.00268 h -57.1488 l -0.2026,189.48268 -81.4674,-189.48268 h -57.3515 v 295.06608 h 57.3515 v -190.2933 l 82.0753,190.2933 z"
     id="text1"
     style="font-weight:bold;font-size:415.038px;font-family:'Roboto Mono';-inkscape-font-specification:'Roboto Mono Bold';letter-spacing:-3;fill:#3b4ba0;stroke-width:2.59397"
     class="blue"
     transform="scale(0.98223046,1.018091)"
     aria-label="OTOWN" />
  <path
     style="font-weight:bold;font-size:430.03px;font-family:'Roboto Mono';-inkscape-font-specification:'Roboto Mono Bold';letter-spacing:-3.00001;fill:#ff5722;stroke-width:2.38905"
     d="M 73.28147,417.09739 H -8.9257956e-6 V 722.82184 H 54.173692 V 632.32236 L 51.653985,494.99833 87.55981,622.03356 h 29.18661 l 40.10533,-132.70457 -2.5197,142.99337 v 90.49948 h 54.1737 V 417.09739 H 135.22427 L 102.2581,531.95403 Z m 332.96092,241.89187 17.84793,63.83258 h 62.15277 L 387.97452,417.09739 H 334.43074 L 234.27239,722.82184 h 62.15277 l 18.0579,-63.83258 z M 328.97138,608.8051 361.09764,496.25818 392.38401,608.8051 Z m 273.11788,-11.54866 75.59121,125.5654 h 70.13185 L 641.14472,552.32166 744.03276,417.09739 h -72.2316 L 597.4698,519.77545 569.75302,557.1511 V 417.09739 h -59.21311 v 305.72445 h 59.21311 v -90.07953 z m 352.06875,-8.39903 V 542.24283 H 828.59261 V 465.1818 H 974.73562 V 417.09739 H 769.3795 V 722.82184 H 975.36554 V 675.15738 H 828.59261 v -86.29997 z m 170.64979,19.73771 57.5333,114.22672 h 63.2026 v -2.72968 l -65.7223,-126.19533 q 12.5985,-5.66934 22.6773,-13.43844 10.2888,-7.7691 17.638,-18.26787 7.1391,-10.28881 10.9187,-23.30729 3.9895,-13.22847 3.9895,-29.60656 0,-22.67737 -7.979,-39.89536 -7.7691,-17.218 -22.2574,-28.76666 -14.6983,-11.54866 -35.2759,-17.42797 -20.5776,-6.08929 -45.9847,-6.08929 h -102.4681 v 305.72445 h 59.0032 V 608.59512 Z m -44.7248,-47.87443 v -95.74887 h 43.4649 q 12.1786,0 21.6275,2.93966 9.4489,2.93966 15.9581,8.39902 7.3492,6.08929 10.9188,15.53819 3.7795,9.23893 3.7795,21.41751 0,10.07883 -2.9396,18.26788 -2.7297,8.18905 -8.1891,14.06836 -6.5092,7.34915 -17.008,11.33869 -10.2888,3.77956 -23.9372,3.77956 z"
     id="text2"
     class="orange"
     transform="scale(0.96369018,1.0376779)"
     aria-label="MAKER" />
  <path
     style="font-weight:bold;font-size:413.783px;font-family:'Roboto Mono';-inkscape-font-specification:'Roboto Mono Bold';letter-spacing:-3;fill:#ff5722;stroke-width:2.29879"
     d="m 194.21347,957.09691 q 0,7.87965 -3.23268,14.54705 -3.23268,6.46536 -9.29395,11.11234 -6.06128,4.64698 -14.95115,7.27353 -8.68782,2.62655 -20.0022,2.62655 -12.72868,0 -23.43693,-2.82859 -10.50621,-2.8286 -17.98178,-8.88987 -7.677614,-6.06128 -11.920506,-15.55727 -4.242892,-9.496 -4.646977,-22.8308 H 32.983574 q 0,22.8308 8.687827,39.80237 8.889869,16.97156 24.043054,29.49818 15.961356,12.7287 37.377855,19.3961 21.61855,6.4654 43.64118,6.4654 22.42671,0 41.41871,-5.2532 18.99199,-5.4551 32.73088,-15.9613 13.73888,-10.3042 21.4165,-25.25532 7.87966,-15.15318 7.87966,-34.54926 0,-22.42671 -10.30417,-39.60032 -10.30417,-17.17361 -27.67982,-30.10433 -11.51642,-7.87966 -25.25531,-13.94093 -13.73889,-6.06128 -28.89207,-10.30417 -14.14298,-3.83881 -25.45736,-8.28374 -11.11233,-4.44494 -18.99199,-9.90008 -7.87965,-5.25311 -12.12255,-11.92051 -4.040846,-6.6674 -4.040846,-14.95114 0,-7.87966 3.030636,-14.54706 3.23268,-6.86944 9.29395,-11.92051 6.06128,-4.84902 14.74911,-7.47557 8.88986,-2.82859 20.20424,-2.82859 12.32459,0 21.41651,3.43472 9.29395,3.23268 15.55727,9.09191 6.06127,6.06128 9.09191,14.34502 3.23268,8.28374 3.63676,18.18382 h 55.35964 q 0,-19.80016 -7.67761,-36.36765 -7.67762,-16.56748 -21.41651,-28.69003 -13.73888,-11.9205 -32.93292,-18.58791 -18.99199,-6.6674 -42.02483,-6.6674 -22.22468,0 -41.21667,5.85924 -18.991992,5.65718 -32.932923,16.36544 -13.940931,10.70825 -21.820587,25.86143 -7.879657,15.15319 -7.879657,33.7411 0,16.16339 5.859232,29.90228 6.061274,13.73889 17.779738,25.05327 11.718463,11.31438 30.104329,20.81037 18.587908,9.496 43.035048,16.1634 15.75931,4.24289 26.26552,9.29396 10.70825,4.84902 17.37565,10.70825 6.46536,6.06127 9.09191,12.93072 2.8286,6.86944 2.8286,14.7491 z m 152.97678,-31.11454 h 43.84322 q 24.04306,0 43.43913,-6.86945 19.39608,-6.86944 33.13497,-19.19403 13.53685,-12.12255 20.81037,-28.89208 7.47558,-16.76952 7.47558,-36.56969 0,-21.21446 -7.47558,-38.59011 -7.27352,-17.37565 -20.81037,-29.90229 -13.73889,-12.32459 -33.13497,-19.19403 -19.39607,-7.07149 -43.43913,-7.07149 H 290.41632 v 294.1738 h 56.77393 z m 0,-46.06569 v -94.15179 h 43.84322 q 12.12255,0 21.01242,3.8388 8.88987,3.83881 14.95114,10.50621 5.85923,6.6674 8.68783,15.55727 3.03064,8.88987 3.03064,19.19404 0,8.88987 -3.03064,17.17361 -2.8286,8.0817 -8.68783,14.34501 -6.06127,6.26332 -14.95114,9.90009 -8.88987,3.63676 -21.01242,3.63676 z m 329.56191,92.53545 17.17361,61.42087 h 59.80458 L 659.17447,739.6992 h -51.52083 l -96.37426,294.1738 h 59.80457 l 17.37565,-61.42087 z m -74.35163,-48.28815 30.9125,-108.29476 30.10433,108.29476 z m 379.26437,17.5777 h -56.77393 q -0.80817,13.3348 -4.44494,22.8308 -3.63676,9.49599 -9.90008,15.55727 -6.26331,6.06127 -15.15318,8.88987 -8.88987,2.82859 -20.00221,2.82859 -8.28374,0 -15.15318,-1.81838 -6.66741,-2.02043 -12.12255,-6.06127 -5.05106,-3.63677 -9.09191,-9.09192 -3.83881,-5.45514 -6.66741,-12.52663 -4.04085,-10.30417 -6.06127,-24.04305 -1.81838,-13.94093 -1.81838,-31.51863 v -40.00441 q 0,-12.93072 1.21225,-24.04305 1.21226,-11.31438 3.83881,-20.60834 3.43472,-11.9205 9.09191,-20.81037 5.85923,-9.09191 14.14297,-13.94093 4.84902,-2.8286 10.50621,-4.2429 5.85923,-1.41429 12.52664,-1.41429 12.52663,0 21.4165,3.43472 9.09191,3.23268 15.15318,9.69804 5.85924,6.6674 8.88987,16.56748 3.23268,9.90008 4.04085,23.03284 h 56.5719 q -2.02043,-23.03284 -9.69804,-41.4187 -7.67762,-18.38587 -21.01242,-31.11454 -13.3348,-12.72868 -32.3268,-19.59813 -18.78995,-6.86944 -43.03504,-6.86944 -16.36544,0 -30.71046,4.24289 -14.14297,4.04085 -26.06348,11.71847 -13.3348,9.09191 -23.84101,22.22467 -10.50621,13.13276 -16.97157,29.90228 -5.65719,13.73889 -8.48578,29.90229 -2.8286,15.96136 -2.8286,33.74109 v 39.60033 q 0,18.99199 3.03064,35.96356 3.23268,16.97157 9.09191,31.11454 6.06128,14.14297 14.7491,25.86144 8.88987,11.71843 20.20425,20.00223 12.32459,8.8898 27.67982,13.7389 15.55727,4.6469 33.74109,4.6469 23.03284,0 42.02484,-6.6674 18.99199,-6.8694 32.73088,-19.396 13.73889,-12.52667 21.82058,-30.30641 8.28375,-17.77974 9.69804,-40.00441 z m 222.0753,-36.77173 v -44.85343 h -120.8214 v -74.14959 h 140.6216 V 739.6992 h -197.5976 v 294.1738 h 198.2037 v -45.8636 h -141.2277 v -83.03945 z"
     id="text3"
     class="orange"
     transform="scale(0.98053482,1.0198516)"
     aria-label="SPACE" />
</svg>
